<svg width="200" height="200" viewBox="0 0 200 200" fill="none" xmlns="http://www.w3.org/2000/svg">
  <rect width="200" height="200" rx="40" fill="#0C9A4E"/>
  <path d="M100 40C71.5 40 50 50.5 50 65V135C50 149.5 71.5 160 100 160C128.5 160 150 149.5 150 135V65C150 50.5 128.5 40 100 40Z" fill="white"/>
  <path d="M100 55C71.5 55 50 65.5 50 80V65C50 50.5 71.5 40 100 40C128.5 40 150 50.5 150 65V80C150 65.5 128.5 55 100 55Z" fill="#0C9A4E"/>
  <path d="M100 95C71.5 95 50 105.5 50 120V105C50 90.5 71.5 80 100 80C128.5 80 150 90.5 150 105V120C150 105.5 128.5 95 100 95Z" fill="#0C9A4E"/>
  <path d="M100 135C71.5 135 50 145.5 50 160V145C50 130.5 71.5 120 100 120C128.5 120 150 130.5 150 145V160C150 145.5 128.5 135 100 135Z" fill="#0C9A4E"/>
  
  <!-- Rows representing data -->
  <rect x="70" y="60" width="60" height="5" rx="2.5" fill="white"/>
  <rect x="70" y="70" width="60" height="5" rx="2.5" fill="white"/>
  
  <rect x="70" y="100" width="60" height="5" rx="2.5" fill="white"/>
  <rect x="70" y="110" width="60" height="5" rx="2.5" fill="white"/>
  
  <rect x="70" y="140" width="60" height="5" rx="2.5" fill="white"/>
  <rect x="70" y="150" width="60" height="5" rx="2.5" fill="white"/>
</svg>