<svg width="200" height="200" viewBox="0 0 200 200" fill="none" xmlns="http://www.w3.org/2000/svg">
  <rect width="200" height="200" rx="50" fill="#0C9A4E"/>
  <path d="M100 50C83.43 50 70 63.43 70 80C70 96.57 83.43 110 100 110C116.57 110 130 96.57 130 80C130 63.43 116.57 50 100 50ZM100 100C89.17 100 80 90.83 80 80C80 69.17 89.17 60 100 60C110.83 60 120 69.17 120 80C120 90.83 110.83 100 100 100Z" fill="white"/>
  <path d="M120 120H80C58.95 120 42 136.95 42 158V160C42 161.1 42.9 162 44 162H156C157.1 162 158 161.1 158 160V158C158 136.95 141.05 120 120 120Z" fill="white"/>
  <path d="M146 75C142.13 75 139 78.13 139 82C139 85.87 142.13 89 146 89C149.87 89 153 85.87 153 82C153 78.13 149.87 75 146 75Z" fill="white"/>
</svg>