<svg width="200" height="200" viewBox="0 0 200 200" fill="none" xmlns="http://www.w3.org/2000/svg">
  <rect width="200" height="200" rx="40" fill="#0C9A4E"/>
  <path d="M50 90C50 82.268 56.268 76 64 76H136C143.732 76 150 82.268 150 90V146C150 153.732 143.732 160 136 160H64C56.268 160 50 153.732 50 146V90Z" fill="white"/>
  <path d="M70 90C70 85.582 73.582 82 78 82H122C126.418 82 130 85.582 130 90V134C130 138.418 126.418 142 122 142H78C73.582 142 70 138.418 70 134V90Z" fill="#0C9A4E"/>
  <path d="M85 102C85 99.791 86.791 98 89 98H111C113.209 98 115 99.791 115 102V122C115 124.209 113.209 126 111 126H89C86.791 126 85 124.209 85 122V102Z" fill="white"/>
  <path d="M60 53C60 48.582 63.582 45 68 45H132C136.418 45 140 48.582 140 53V67C140 71.418 136.418 75 132 75H68C63.582 75 60 71.418 60 67V53Z" fill="white"/>
  <path d="M70 53C70 51.895 70.895 51 72 51H128C129.105 51 130 51.895 130 53V67C130 68.105 129.105 69 128 69H72C70.895 69 70 68.105 70 67V53Z" fill="#0C9A4E"/>
  <path d="M80 60C80 58.895 80.895 58 82 58H118C119.105 58 120 58.895 120 60V60C120 61.105 119.105 62 118 62H82C80.895 62 80 61.105 80 60V60Z" fill="white"/>
  <path d="M75 55H77V65H75V55Z" fill="white"/>
  <path d="M123 55H125V65H123V55Z" fill="white"/>
</svg>